<svg width="220" height="52" viewBox="0 0 220 52" fill="none" xmlns="http://www.w3.org/2000/svg" role="img" aria-labelledby="title">
  <title id="title">Adstart W3</title>
  <rect x="1" y="1" width="50" height="50" rx="6" fill="#C0392B"/>
  <path d="M12 14H19.6L24.2 34.2L29.2 14H35.3L40.4 34.2L44.9 14H50L42.6 39H35.8L32.1 24.4L28.2 39H21.4L12 14Z" fill="white"/>
  <path d="M66 15.5H79.6C85.3 15.5 88.7 18.3 88.7 22.8C88.7 25.7 87.1 27.9 84.3 29C87.8 29.9 89.8 32.4 89.8 35.8C89.8 40.8 86.1 44 80.1 44H66V15.5ZM79.1 27C82 27 83.5 25.8 83.5 23.6C83.5 21.4 82 20.2 79.1 20.2H71.5V27H79.1ZM79.7 39.3C82.8 39.3 84.3 38 84.3 35.6C84.3 33.2 82.8 31.8 79.7 31.8H71.5V39.3H79.7Z" fill="#0F0F0E"/>
  <path d="M94.4 15.5H100V44H94.4V15.5Z" fill="#0F0F0E"/>
  <path d="M104.7 29.8C104.7 21.1 110.8 15 119.5 15C126.4 15 131.8 18.8 133.7 24.8H127.7C126.3 21.9 123.4 20.1 119.6 20.1C114.2 20.1 110.5 24 110.5 29.8C110.5 35.6 114.2 39.5 119.6 39.5C123.4 39.5 126.3 37.7 127.7 34.8H133.7C131.8 40.8 126.4 44.6 119.5 44.6C110.8 44.6 104.7 38.5 104.7 29.8Z" fill="#0F0F0E"/>
  <path d="M137.9 15.5H143.5V27.1H156.8V15.5H162.4V44H156.8V32.1H143.5V44H137.9V15.5Z" fill="#0F0F0E"/>
  <path d="M169.2 15.5H190.1V20.4H174.8V27.2H188.5V32H174.8V39.1H190.4V44H169.2V15.5Z" fill="#0F0F0E"/>
  <path d="M194.9 15.5H200.5V39H215V44H194.9V15.5Z" fill="#0F0F0E"/>
  <path d="M67 6H113" stroke="#D4AC0D" stroke-width="3" stroke-linecap="square"/>
</svg>
